<svg width="190" height="79" viewBox="0 0 190 79" fill="none" xmlns="http://www.w3.org/2000/svg">
<g clip-path="url(#clip0_206_40)">
<path d="M17.5376 13.8239L34.4399 30.7102L43.8366 21.3265C45.0011 20.167 45.9254 18.7897 46.5569 17.2735C47.1884 15.7572 47.5147 14.1316 47.5171 12.4894C47.5194 10.8472 47.1979 9.22063 46.5708 7.70255C45.9437 6.18446 45.0233 4.80459 43.8622 3.64172C42.701 2.47885 41.3219 1.55574 39.8036 0.925114C38.2852 0.294489 36.6573 -0.0313087 35.0129 -0.0336784C33.3684 -0.036048 31.7396 0.285061 30.2194 0.911308C28.6993 1.53755 27.3175 2.45667 26.153 3.6162L16.1065 13.678C16.324 13.5301 16.5869 13.4636 16.8487 13.4903C17.1105 13.517 17.3544 13.6351 17.5376 13.8239Z" fill="#FFCD67"/>
<path d="M7.41075 57.695C5.14751 60.0533 3.89953 63.2033 3.93431 66.4696C3.96909 69.7359 5.28388 72.8586 7.59682 75.1684C9.90977 77.4782 13.0368 78.7911 16.3076 78.8259C19.5784 78.8606 22.7327 77.6143 25.0943 75.3542L34.4545 66.0069L16.7636 48.3477L7.41075 57.695Z" fill="#4B5EAA"/>
<path d="M43.2744 39.4961L34.4545 30.6884L17.5449 13.8239C17.3573 13.6309 17.1063 13.5121 16.8379 13.4894C16.5696 13.4666 16.3021 13.5414 16.0846 13.6999L7.87073 21.9098C6.70411 23.0725 5.78518 24.4589 5.16927 25.9856C4.25839 28.2397 4.02882 30.7109 4.50893 33.0939C4.98904 35.4769 6.15778 37.6672 7.87073 39.3941L16.7636 48.3477L34.4107 65.9704L43.216 57.17C45.5548 54.8256 46.8728 51.6543 46.8838 48.3451C46.8947 45.0358 45.5977 41.8559 43.2744 39.4961Z" fill="#56C5D0"/>
<path d="M48.7795 38.1182C49.0085 38.3381 49.2826 38.5056 49.5828 38.6092C49.883 38.7127 50.2022 38.7499 50.5183 38.718C50.8343 38.686 51.1396 38.5859 51.413 38.4244C51.6864 38.2629 51.9214 38.044 52.1016 37.7828L52.3352 37.3745C53.5406 35.2672 54.1813 32.8851 54.1953 30.4584C54.2094 28.0316 53.5964 25.6423 52.4156 23.5212C52.2626 23.2442 52.0472 23.0064 51.7865 22.8267C51.5258 22.647 51.2268 22.5302 50.9131 22.4857C50.5994 22.4411 50.2797 22.47 49.9791 22.57C49.6785 22.67 49.4053 22.8384 49.1811 23.0619L41.4637 30.8124L48.7795 38.1182Z" fill="#FFCD67"/>
<path d="M4.29312 42.4495C4.11486 42.2701 3.89876 42.1327 3.66058 42.0473C3.4224 41.9618 3.16814 41.9305 2.91632 41.9557C2.6645 41.9808 2.42146 42.0618 2.20494 42.1926C1.98841 42.3235 1.80384 42.5009 1.66468 42.712L1.48215 43.0328C0.528942 44.6863 0.0181461 46.5571 -0.00103553 48.465C-0.0202172 50.3728 0.452861 52.2535 1.37263 53.9258C1.49333 54.1438 1.663 54.3309 1.8683 54.4723C2.07361 54.6138 2.30896 54.7058 2.55587 54.7411C2.80279 54.7765 3.05454 54.7541 3.29137 54.6759C3.52819 54.5977 3.74362 54.4657 3.92076 54.2904L10.0027 48.2095L4.29312 42.4495Z" fill="#4B5EAA"/>
<path d="M14.9675 33.8382C16.9434 33.8382 18.5451 32.2387 18.5451 30.2656C18.5451 28.2924 16.9434 26.6929 14.9675 26.6929C12.9917 26.6929 11.3899 28.2924 11.3899 30.2656C11.3899 32.2387 12.9917 33.8382 14.9675 33.8382Z" fill="#4B5EAA"/>
<path d="M82.2411 64.2061C72.4501 64.2061 64.7984 59.3501 64.4772 50.156H76.276C76.5972 53.6484 78.8022 55.3327 81.9125 55.3327C85.1543 55.3327 87.2278 53.7141 87.2278 51.0601C87.2278 42.646 64.4772 47.1739 64.594 31.0531C64.594 22.4422 71.6616 17.6519 81.197 17.6519C91.1121 17.6519 97.7927 22.5734 98.2454 31.2499H86.2568C86.0669 28.3334 83.9861 26.5836 81.0072 26.5252C78.3495 26.4596 76.3417 27.8158 76.3417 30.6666C76.3417 38.563 98.8368 35.0413 98.8368 50.2216C98.8368 57.8555 92.8717 64.2061 82.2411 64.2061Z" fill="#4B5EAA"/>
<path d="M134.255 55.7191H117.258L114.534 63.7394H102.933L119.397 18.2935H132.233L148.704 63.7394H136.964L134.255 55.7191ZM125.764 30.5354L120.193 47.1738H131.408L125.764 30.5354Z" fill="#4B5EAA"/>
<path d="M174.894 63.7467H153.72V18.3008H174.207C183.48 18.3008 188.992 22.8942 188.992 30.0833C189.078 32.4295 188.361 34.7348 186.958 36.6185C185.554 38.5022 183.55 39.8517 181.275 40.4441C183.779 40.9697 186.022 42.3481 187.62 44.3432C189.218 46.3383 190.073 48.8262 190.037 51.3809C190 58.8908 184.488 63.7467 174.894 63.7467ZM172.039 27.1669H164.782V36.6891H172.039C175.69 36.6891 177.676 35.0705 177.676 31.9645C177.676 28.8584 175.668 27.1669 172.039 27.1669ZM172.82 44.7824H164.789V54.815H172.952C176.646 54.815 178.793 53.1308 178.793 49.8935C178.793 46.6562 176.515 44.7824 172.82 44.7824Z" fill="#4B5EAA"/>
<path d="M81.8468 55.3401C78.7365 55.3401 76.5315 53.6558 76.203 50.1633H64.4042C64.4247 52.5831 65.1104 54.9507 66.3863 57.008C67.6622 59.0652 69.4795 60.7329 71.6397 61.8292C72.8371 61.7563 74.0272 61.6397 75.2173 61.523H75.3195L75.4801 61.4866C76.0423 61.3699 76.6118 61.3043 77.174 61.1949C79.7221 60.7332 82.2445 60.1393 84.7308 59.4159C89.2423 58.077 93.6803 56.5023 98.0264 54.6985C98.5178 53.2623 98.7646 51.754 98.7565 50.2363C98.7565 35.0196 76.2614 38.5704 76.2614 30.6813C76.2614 27.8377 78.2692 26.4743 80.9269 26.5399C83.9131 26.6055 85.9866 28.3554 86.1838 31.2646H98.1724C97.7197 22.5954 91.0464 17.6738 81.124 17.6738C71.5959 17.6738 64.5283 22.4641 64.5283 31.075C64.3969 47.1958 87.1621 42.6607 87.1621 51.0747C87.1621 53.7215 85.0886 55.3401 81.8468 55.3401Z" fill="#56C5D0"/>
<path d="M112.987 49.5871C115.411 48.5664 117.835 47.5967 120.288 46.6707L125.705 30.5207L130.086 43.5282C133.509 42.608 136.99 41.9163 140.505 41.4575H140.549L132.152 18.2788H119.324L107.087 52.0589C109.051 51.2495 111.015 50.4111 112.987 49.5871Z" fill="#56C5D0"/>
<path d="M170.177 42.5732C174.733 43.2148 179.282 43.9804 183.787 44.9209C185.415 45.2636 187.036 45.6501 188.635 46.1021C187.894 44.6623 186.839 43.4069 185.548 42.4289C184.256 41.4509 182.761 40.775 181.173 40.4514C183.448 39.8602 185.454 38.511 186.857 36.627C188.26 34.743 188.978 32.4371 188.89 30.0907C188.89 22.9088 183.378 18.3081 174.105 18.3081H153.625V40.9618C159.167 41.2122 164.692 41.7501 170.177 42.5732ZM164.708 27.1815H171.966C175.617 27.1815 177.61 28.8657 177.61 31.9718C177.61 35.0778 175.602 36.6965 171.966 36.6965H164.708V27.1815Z" fill="#56C5D0"/>
<path d="M72.9247 42.8577C74.5967 42.8577 76.276 42.8066 77.948 42.6972C79.3352 42.6025 80.7151 42.4493 82.1024 42.3035H82.2119H82.2776C82.9639 42.1869 83.6502 42.0921 84.3438 41.9754C87.2643 41.4869 90.141 40.889 93.0177 40.2255C86.3517 36.1425 76.2687 35.9894 76.2687 30.696C76.2687 27.8524 78.2765 26.4889 80.9342 26.5546C83.9204 26.6202 85.9939 28.3701 86.1911 31.2792H98.1797C97.727 22.61 91.0537 17.6885 81.1313 17.6885C71.6032 17.6885 64.5356 22.4788 64.5356 31.0897C64.4845 37.7465 68.3614 40.8817 72.9247 42.8577Z" fill="#FFCD67"/>
<path d="M124.763 33.3425L125.705 30.55L126.523 32.978C129.93 32.2926 133.362 31.668 136.818 31.1041L132.182 18.3081H119.324L112.899 36.0621C116.827 35.0924 120.777 34.1664 124.763 33.3425Z" fill="#FFCD67"/>
<path d="M159.422 28.7855C161.16 28.7272 162.927 28.7053 164.709 28.7272V27.1815H171.966C174.529 27.1815 176.281 28.02 177.077 29.6094C181.02 30.127 184.918 30.9435 188.737 32.052C188.841 31.4035 188.893 30.7475 188.89 30.0907C188.89 22.9088 183.378 18.3081 174.105 18.3081H153.625V29.1355C155.553 28.9605 157.488 28.8512 159.422 28.7855Z" fill="#FFCD67"/>
</g>
<defs>
<clipPath id="clip0_206_40">
<rect width="190" height="79" fill="white"/>
</clipPath>
</defs>
</svg>
